<svg id="Layer_1" data-name="Layer 1" xmlns="http://www.w3.org/2000/svg" viewBox="0 0 449.1 389.64"><defs><style>.cls-1,.cls-2,.cls-3{fill:none;stroke:#1d1d1b;stroke-miterlimit:10;}.cls-1{stroke-width:2px;}.cls-2{stroke-dasharray:3;}</style></defs><path class="cls-1" d="M74.41,216s-4.35-21.74,29-31.89l320.29-58s24.64-10.14,34.78,17.4l44.71,174.11a489.92,489.92,0,0,0,16.46,50.62c3.42,9.06,3,21.88-20.59,28.89L246.87,443.57l-72.46,11.59S129.48,467.65,128,503.88c0,0-21.74-119.74-37.68-203.79Z" transform="translate(-73.22 -123.35)"/><path class="cls-2" d="M462.81,217.23l-15.94-60.62s1.45-18.84-24.64-13L186,182.7,96.69,197.58a34.06,34.06,0,0,0-16.53,7.53c-3.57,3-6.52,6.87-5.75,10.92" transform="translate(-73.22 -123.35)"/><path class="cls-2" d="M474.41,271.45,499,359.51s10.15,18.84-30.43,29L268.55,420.94S147.29,442,121,466.72" transform="translate(-73.22 -123.35)"/><path class="cls-1" d="M515.34,388.88l5.85,38.74-341,78.26s-42,10.15-52.17,0c0,0,0-56.24,94.59-58.43C222.62,447.45,492.51,405.21,515.34,388.88Z" transform="translate(-73.22 -123.35)"/><polygon class="cls-3" points="78.85 343.37 78.85 356.45 416.5 297.6 416.5 275.56 119.82 328.14 78.85 343.37"/></svg>